<svg xmlns="http://www.w3.org/2000/svg" width="39" height="39" viewBox="0 0 39 39">
  <g id="acceptcall_ic" transform="translate(-1029 -878)">
    <rect id="Rectangle_3" data-name="Rectangle 3" width="39" height="39" transform="translate(1029 878)" fill="#fff" opacity="0"/>
    <path id="Path_2" data-name="Path 2" d="M28.06,3.288A3.163,3.163,0,0,0,24.975.047L23.14,0A3.164,3.164,0,0,0,19.9,3.086l-.029,1.2h0a3.147,3.147,0,0,0,.412,1.644l.127.222a.547.547,0,0,1-.288.786l-.241.087a16.17,16.17,0,0,1-11.6-.2l-.211-.086a.554.554,0,0,1-.3-.307A.548.548,0,0,1,7.773,6l.1-.206a3.148,3.148,0,0,0,.294-1.256l.03-1.2A3.162,3.162,0,0,0,5.108.094L3.272.049A3.166,3.166,0,0,0,.031,3.133L0,4.336a3.228,3.228,0,0,0,.135,1A4.674,4.674,0,0,0,1.8,7.729a20.27,20.27,0,0,0,24.284.6,4.007,4.007,0,0,0,1.9-3.24.611.611,0,0,1,0-.069V4.968a.646.646,0,0,1,.007-.071,2.978,2.978,0,0,0,.036-.407Z" transform="translate(1044.363 883.796) rotate(51)" fill="#fff"/>
  </g>
</svg>
