<svg xmlns="http://www.w3.org/2000/svg" width="39" height="39" viewBox="0 0 39 39">
  <g id="startcall_ic" transform="translate(-1029 -878)">
    <rect id="Rectangle_3" data-name="Rectangle 3" width="39" height="39" transform="translate(1029 878)" fill="#fff" opacity="0"/>
    <g id="video-call" transform="translate(1034.685 884.939)">
      <path id="Path_12" data-name="Path 12" d="M6.955,10.326a20.9,20.9,0,0,0,3.1,4.343,17.617,17.617,0,0,0,4.91,3.623.491.491,0,0,0,.425.022,1.831,1.831,0,0,0,.591-.432,6.592,6.592,0,0,0,.538-.659c.787-1.039,1.765-2.325,3.144-1.682l.083.045,4.6,2.645c.016.007.029.022.045.029a2.072,2.072,0,0,1,.864,1.788,4.822,4.822,0,0,1-.675,2.28,4.682,4.682,0,0,1-2.213,1.954,10.085,10.085,0,0,1-2.728.742,9.238,9.238,0,0,1-4.167-.349,18.389,18.389,0,0,1-4.19-2.024l-.106-.067c-.681-.425-1.417-.879-2.137-1.417a26.7,26.7,0,0,1-7.084-8.04A13.047,13.047,0,0,1,.118,4.863,5.951,5.951,0,0,1,2.126,1.1a5.4,5.4,0,0,1,4-1.068.574.574,0,0,1,.461.295L9.537,5.308a1.556,1.556,0,0,1,.25,1.667A3.3,3.3,0,0,1,8.657,8.241c-.16.137-.349.272-.547.416-.659.477-1.41,1.03-1.151,1.682l0-.013Z" transform="translate(0 0)" fill="#fff"/>
      <path id="Path_13" data-name="Path 13" d="M66.775,1.67h6.644a1.207,1.207,0,0,1,1.2,1.2V4.155L78.457,1.85V9.125L74.622,7.056V8.725a1.207,1.207,0,0,1-1.2,1.2H66.775a1.208,1.208,0,0,1-1.205-1.2V2.873a1.208,1.208,0,0,1,1.205-1.2Z" transform="translate(-50.825 -1.296)" fill="#fff"/>
    </g>
  </g>
</svg>
