<svg xmlns="http://www.w3.org/2000/svg" width="100" height="100" viewBox="0 0 100 100">
  <g id="ate_the_airport" data-name="ate the airport" transform="translate(-727 -264)">
    <rect id="Rectangle_47" data-name="Rectangle 47" width="100" height="100" transform="translate(727 264)" fill="#fff" opacity="0"/>
    <path id="Path_66" data-name="Path 66" d="M-118.87-171.243v.673c-.161.253-.345.494-.48.76-2.036,4.012-4.076,8.022-6.085,12.048a1.032,1.032,0,0,1-1.148.706c-.546-.052-1.1-.011-1.639-.011v14.85h7.141v37.367h-59.873v-18.526h-13.3v18.582H-205v-37.514h8.536v-7.444h31.59v7.443h22.418v-14.758a14.4,14.4,0,0,0-1.613.012,1.065,1.065,0,0,1-1.2-.744q-3.147-6.3-6.362-12.562a.953.953,0,0,1,.123-1.254c1.508-1.733,2.994-3.485,4.439-5.27a1.609,1.609,0,0,1,1.417-.659c4.989.023,9.977.013,14.966.013h.942v-4.628c-.9,0-1.734,0-2.572,0-.632,0-1.04-.277-1.034-.935s.423-.936,1.045-.937q3.405,0,6.81,0c.622,0,1.052.27,1.071.912.021.7-.43.97-1.091.964-.834-.008-1.668,0-2.526,0v4.628c1.12,0,2.183-.042,3.24.023a1.656,1.656,0,0,1,1.045.5C-122.1-175.109-120.495-173.17-118.87-171.243ZM-180-136.671h-17.857v5.249H-180Zm25,5.243h17.859v-5.236h-17.859Zm-3.6-5.23H-176.36v5.23H-158.6Zm20.848-24.053h4.808V-167.4h-4.808Zm6.459.049c.951,0,1.815.017,2.678-.014a.7.7,0,0,0,.508-.308c1.061-2.109,2.1-4.232,3.168-6.41h-6.354Zm-14.476-6.758c1.084,2.208,2.1,4.285,3.129,6.351a.724.724,0,0,0,.463.386c.91.037,1.822.018,2.737.018v-6.755Z" transform="translate(939 458.033)" fill="#fff"/>
  </g>
</svg>
