<svg xmlns="http://www.w3.org/2000/svg" width="80" height="80" viewBox="0 0 80 80">
  <g id="baggage" transform="translate(-382 -703)">
    <rect id="Rectangle_54" data-name="Rectangle 54" width="80" height="80" transform="translate(382 703)" fill="#fff" opacity="0"/>
    <g id="Group_57" data-name="Group 57" transform="translate(-458.028 872.239)">
      <path id="Path_67" data-name="Path 67" d="M885.64-100.956v-43.6h4.315c0-1.64,0-3.131,0-4.623.005-5.026,2.181-7.678,7.2-7.876,6.392-.252,12.81-.246,19.2,0,5.179.2,7.295,2.8,7.226,7.98-.018,1.386,0,2.773,0,4.35h4.3v43.769Zm11.593-43.766h19.026v-5.56H897.233Z" transform="translate(-26.392)" fill="#fff"/>
      <path id="Path_68" data-name="Path 68" d="M853.581-124.08v43.743c-1.974,0-3.871.141-5.738-.036a4.8,4.8,0,0,1-4.32-3.969,16.457,16.457,0,0,1-.469-3.944c-.039-9.192-.024-18.385-.014-27.578a16.17,16.17,0,0,1,.142-2.463c.676-4.346,2.33-5.746,6.723-5.752C851.094-124.081,852.283-124.08,853.581-124.08Z" transform="translate(0 -20.538)" fill="#fff"/>
      <path id="Path_69" data-name="Path 69" d="M1011.149-80.209V-123.9a59.576,59.576,0,0,1,6.24.051,4.078,4.078,0,0,1,3.511,3.107,19.513,19.513,0,0,1,.787,5.027c.074,9.128.043,18.257.024,27.384a16.93,16.93,0,0,1-.259,3.02c-.677,3.665-2.412,5.083-6.132,5.1C1013.994-80.205,1012.67-80.209,1011.149-80.209Z" transform="translate(-104.129 -20.613)" fill="#fff"/>
    </g>
  </g>
</svg>
