<svg xmlns="http://www.w3.org/2000/svg" width="100" height="100" viewBox="0 0 100 100">
  <g id="covid_guidelines" data-name="covid guidelines" transform="translate(-1515 -455)">
    <rect id="Rectangle_50" data-name="Rectangle 50" width="100" height="100" transform="translate(1515 455)" fill="#fff" opacity="0"/>
    <g id="Group_70" data-name="Group 70" transform="translate(3.707 8.761)">
      <g id="Group_69" data-name="Group 69" transform="translate(1520.293 449.239)">
        <path id="Path_107" data-name="Path 107" d="M5954.969-3946.527a6.5,6.5,0,0,1-.757-.62c-.981-1.092-1.873-2.275-2.926-3.291a12.277,12.277,0,0,0-17.377.535c-.817.86-1.562,1.793-2.311,2.716-.563.694-1.063.735-1.639.06q-5.929-6.966-11.854-13.935a1.014,1.014,0,0,1-.246-.964,26.737,26.737,0,0,1,4.645-9.948,16.28,16.28,0,0,1,8.809-5.946.879.879,0,0,1,1.194.5,8.093,8.093,0,0,0,6.792,4.325,21.028,21.028,0,0,0,8.809-1.333c1.263-.425,2.492-.95,3.731-1.448.814-.328,1.3-.073,1.415.792a15.884,15.884,0,0,0,3.216,8,16.09,16.09,0,0,0,7.364,5.137c.639.233,1.3.415,1.949.612.813.247,1.016.87.476,1.526q-4.477,5.435-8.958,10.865c-.52.629-1.024,1.271-1.565,1.88A4.269,4.269,0,0,1,5954.969-3946.527Z" transform="translate(-5912.6 3993.404)" fill="#fff"/>
        <path id="Path_108" data-name="Path 108" d="M5926.623-4170.086a57.45,57.45,0,0,1,12.809,1.292,22.548,22.548,0,0,1,8.687,3.759,11.818,11.818,0,0,1,4.793,8.889,34.665,34.665,0,0,1-.106,4.443c-.122,2.31-.291,4.617-.44,6.926-.033.521-.058,1.041-.094,1.562-.057.806-.5,1.154-1.287,1a14.9,14.9,0,0,1-6.579-2.876,11.164,11.164,0,0,1-4.079-7.692,13.621,13.621,0,0,1,.118-3.916,2.794,2.794,0,0,0-.007-.915,1.06,1.06,0,0,0-1.391-.948,5.785,5.785,0,0,0-1.34.508,48.12,48.12,0,0,1-8.068,3.412,16.243,16.243,0,0,1-4.917.849,8.908,8.908,0,0,1-1.67-.187,4.312,4.312,0,0,1-3.425-3.327c-.076-.27-.145-.542-.239-.805-.248-.688-.454-.876-1.187-.818a18.147,18.147,0,0,0-2.612.38,19.435,19.435,0,0,0-12.436,9.16c-.291.464-.554.945-.821,1.423-.328.586-.638.784-1.129.693-.458-.085-.7-.412-.742-1.09-.136-2.015-.251-4.032-.391-6.046a12.078,12.078,0,0,1,.324-3.938,12.12,12.12,0,0,1,5.076-7.026,23.4,23.4,0,0,1,7.933-3.334A56.526,56.526,0,0,1,5926.623-4170.086Z" transform="translate(-5896.237 4170.086)" fill="#fff"/>
        <path id="Path_109" data-name="Path 109" d="M5883.436-3696.628a19.376,19.376,0,0,1-11.8-4.013,24.845,24.845,0,0,1-7.853-9.925,106.359,106.359,0,0,1-5.647-15.061,7.278,7.278,0,0,0-.831-1.715,1.654,1.654,0,0,0-.705-.57,1.3,1.3,0,0,1-.738-.879q-1.5-5.133-3.02-10.258c-.245-.831.051-1.25.9-1.343.984-.106,1.966-.224,2.944-.366a1.113,1.113,0,0,1,1.124.432q5.654,6.883,11.32,13.755a.972.972,0,0,1,.133,1.375q-1.457,2.832-2.885,5.678a.792.792,0,0,0-.043.56,45.754,45.754,0,0,0,3.788,8.557,16.9,16.9,0,0,0,9.118,7.584,12.447,12.447,0,0,0,10.5-1.209,16.111,16.111,0,0,0,6.215-6.327,55,55,0,0,0,3.806-8.64.741.741,0,0,0-.062-.521q-1.43-2.846-2.887-5.678a.974.974,0,0,1,.129-1.375q5.687-6.908,11.37-13.819a1.129,1.129,0,0,1,1.191-.443c.973.176,1.955.3,2.932.444a.88.88,0,0,1,.814,1.28q-1.545,5.222-3.1,10.442a1,1,0,0,1-.406.6,3.229,3.229,0,0,0-1.773,2.343,101.3,101.3,0,0,1-5.329,14.411,29.43,29.43,0,0,1-4.287,7.215,20.631,20.631,0,0,1-12.784,7.271C5884.73-3696.694,5883.884-3696.668,5883.436-3696.628Z" transform="translate(-5852.755 3775.309)" fill="#fff"/>
        <path id="Path_110" data-name="Path 110" d="M6122.305-3441.529H6113.8c-.7,0-.872-.177-.872-.878,0-.642,0-1.284,0-1.926,0-.513.221-.741.727-.742q8.665,0,17.331,0c.508,0,.727.226.732.739,0,.655,0,1.31,0,1.966s-.19.841-.829.841Z" transform="translate(-6092.043 3503.273)" fill="#fff"/>
        <path id="Path_111" data-name="Path 111" d="M6151.452-3369.784h-5.893c-.728,0-.909-.176-.911-.887,0-.628,0-1.256,0-1.884,0-.572.2-.78.767-.781q6.094,0,12.188,0c.539,0,.748.214.754.758.009.681.01,1.363,0,2.044-.007.53-.235.747-.771.748Q6154.52-3369.781,6151.452-3369.784Z" transform="translate(-6121.216 3437.293)" fill="#fff"/>
        <path id="Path_112" data-name="Path 112" d="M6151.521-3516.944h5.937c.673,0,.868.189.871.847s.007,1.31,0,1.966c-.005.519-.215.737-.729.738q-6.12.006-12.237,0c-.515,0-.723-.219-.729-.739q-.011-1.023,0-2.046c.006-.556.223-.764.789-.765Q6148.471-3516.947,6151.521-3516.944Z" transform="translate(-6121.198 3569.372)" fill="#fff"/>
      </g>
      <path id="Path_113" data-name="Path 113" d="M3.574,26.046,24.97,4.522l-.728-.829L26.2,1.718l4.516,4.916,2.916-3.06L31.626,1.855,33.855,0l5.533,5.591L37.383,7.32c-.4-.55-.9-1.238-1.424-1.962L32.937,8.534l4.815,4.6L35.6,15.011l-.786-.629L13.575,35.788l-3.858-4.1L1.892,39.4,0,37.261l7.658-7.369Zm9.8,5.515L32.571,12.2,27.046,6.663,23.1,10.569l2.77,2.508-1.962,2.148-2.529-2.933-3.09,2.94,1.647,1.729-2.041,2.178L16.465,17.39,13.25,20.3l2.974,2.525L14.079,25.09c-.861-1.05-1.7-2.076-2.43-2.961L7.767,25.957Z" transform="matrix(0.993, -0.122, 0.122, 0.993, 1558.905, 504.447)" fill="#fff"/>
    </g>
  </g>
</svg>
