<svg xmlns="http://www.w3.org/2000/svg" width="100" height="100" viewBox="0 0 100 100">
  <g id="emergency_contacts" data-name="emergency contacts" transform="translate(-1063 -658)">
    <rect id="Rectangle_56" data-name="Rectangle 56" width="100" height="100" transform="translate(1063 658)" fill="#fff" opacity="0"/>
    <g id="Group_68" data-name="Group 68" transform="translate(-5.768 -10)">
      <path id="Path_98" data-name="Path 98" d="M4019-4880.962v-3.294a18.1,18.1,0,0,1,1.152-2.588,5.377,5.377,0,0,1,3.592-2.155h13.7c.037.022.072.061.112.066a5.543,5.543,0,0,1,4.679,5.59,35.253,35.253,0,0,0,.455,5.5c.384,2.241,1,4.442,1.529,6.658a5.341,5.341,0,0,1-.986,4.66q-2.838,3.756-5.7,7.5a.644.644,0,0,0-.074.814A42.116,42.116,0,0,0,4055.725-4840a.779.779,0,0,0,.682-.036c2.449-1.82,4.917-3.617,7.3-5.52a5.419,5.419,0,0,1,5.294-1.068,41.967,41.967,0,0,0,11.978,1.914,5.108,5.108,0,0,1,4.4,2.237,14.517,14.517,0,0,1,1.088,2.5v13.7a18,18,0,0,1-1.152,2.587,5.378,5.378,0,0,1-3.591,2.156h-3.294c-.215-.033-.428-.074-.644-.1-2.439-.276-4.9-.45-7.315-.843a58.932,58.932,0,0,1-19.1-6.64,61.9,61.9,0,0,1-22.888-21.566,61.073,61.073,0,0,1-9.088-26.033C4019.237-4878.128,4019.131-4879.547,4019-4880.962Z" transform="translate(-2936.232 5579.928)" fill="#fff"/>
      <g id="Group_67" data-name="Group 67" transform="translate(-3995.5 4587.976)">
        <path id="Path_99" data-name="Path 99" d="M5112-3798.265a1.411,1.411,0,0,1,1.478-.795c.678.032,1.358-.008,2.037.012a1.121,1.121,0,0,1,1.21,1.067c-.005.616-.461,1-1.231,1.006-.705.01-1.413-.035-2.114.014a1.4,1.4,0,0,1-1.378-.673Z" transform="translate(0 -93.434)" fill="#fff"/>
        <path id="Path_100" data-name="Path 100" d="M5333.786-3797.747a1.485,1.485,0,0,1-1.46.673c-.729-.049-1.464-.014-2.2-.011a.955.955,0,0,1-1.055-.932.974.974,0,0,1,.96-1.119,13.829,13.829,0,0,1,2.738.014c.362.043.676.484,1.012.744Z" transform="translate(-182.862 -93.322)" fill="#fff"/>
        <path id="Path_101" data-name="Path 101" d="M5174.78-3841.336h3.181v4.865h-26.456v-4.818h3.2v-.933c0-2.914-.008-5.827,0-8.741a9.476,9.476,0,0,1,9.351-9.483,10.284,10.284,0,0,1,7.212,2.126,9.16,9.16,0,0,1,3.5,7.257c.022,2.939.006,5.88.007,8.82Zm-15.491-3.223a25.729,25.729,0,0,1,2.462-12.309c-2.209,1.209-3.789,2.771-4.119,5.042a65.491,65.491,0,0,0-.31,7.133c0,.038.059.079.1.133Z" transform="translate(-33.28 -41.718)" fill="#fff"/>
        <path id="Path_102" data-name="Path 102" d="M5235.973-3907.648c0,.446.015.892,0,1.336a.956.956,0,0,1-1,.992.923.923,0,0,1-1.029-.878,21.069,21.069,0,0,1,0-2.906.928.928,0,0,1,1.036-.871.945.945,0,0,1,1,.99C5235.988-3908.54,5235.973-3908.093,5235.973-3907.648Z" transform="translate(-102.678)" fill="#fff"/>
        <path id="Path_103" data-name="Path 103" d="M5171.773-3891.436c-.346.391-.557.834-.87.926a1.246,1.246,0,0,1-1.106-.266,15.055,15.055,0,0,1-1.529-2.639,1.18,1.18,0,0,1,.367-1.062c.258-.193.973-.231,1.112-.05C5170.464-3893.584,5171.061-3892.551,5171.773-3891.436Z" transform="translate(-47.373 -12.917)" fill="#fff"/>
        <path id="Path_104" data-name="Path 104" d="M5285.036-3893.785a4.036,4.036,0,0,1-.194.62c-.435.776-.863,1.556-1.331,2.313a.971.971,0,0,1-1.424.36.948.948,0,0,1-.356-1.366,14.28,14.28,0,0,1,1.358-2.29,1.479,1.479,0,0,1,1.2-.4C5284.592-3894.5,5284.825-3894.019,5285.036-3893.785Z" transform="translate(-142.857 -12.987)" fill="#fff"/>
        <path id="Path_105" data-name="Path 105" d="M5317.636-3851.066c-.207-.184-.617-.385-.721-.69a1.166,1.166,0,0,1,.186-1.05,19.02,19.02,0,0,1,2.766-1.606.784.784,0,0,1,1.127.542,1.393,1.393,0,0,1-.26,1.162,26.237,26.237,0,0,1-2.628,1.554A2.051,2.051,0,0,1,5317.636-3851.066Z" transform="translate(-172.584 -46.738)" fill="#fff"/>
        <path id="Path_106" data-name="Path 106" d="M5131.335-3852.31a1.026,1.026,0,0,1-1.411,1.1,25.1,25.1,0,0,1-2.457-1.393.931.931,0,0,1-.341-1.306.912.912,0,0,1,1.26-.479,23.338,23.338,0,0,1,2.579,1.49C5131.176-3852.76,5131.262-3852.432,5131.335-3852.31Z" transform="translate(-12.63 -46.747)" fill="#fff"/>
      </g>
    </g>
  </g>
</svg>
