<svg xmlns="http://www.w3.org/2000/svg" width="100" height="100" viewBox="0 0 100 100">
  <g id="gettig_to_airport" data-name="gettig to airport" transform="translate(-481 -181)">
    <rect id="Rectangle_46" data-name="Rectangle 46" width="100" height="100" transform="translate(481 181)" fill="#fff" opacity="0"/>
    <g id="Group_58" data-name="Group 58" transform="translate(-1644.095 103.072)">
      <path id="Path_70" data-name="Path 70" d="M2220.095,127.468a3.347,3.347,0,0,1-1.085,2.362q-7.718,7.7-15.419,15.417-12.688,12.688-25.378,25.373c-1.761,1.761-3.465,1.765-5.226,0l-40.7-40.7a3.19,3.19,0,0,1-.021-4.95q20.464-20.469,40.932-40.933a3.166,3.166,0,0,1,4.814,0q20.467,20.465,40.935,40.93A3.494,3.494,0,0,1,2220.095,127.468Zm-44.5-37.543a11.282,11.282,0,0,0-1.006.793q-17.858,17.843-35.7,35.7c-.864.864-.867,1.167-.011,2.022l35.745,35.745c.826.826,1.143.822,1.974-.008q17.825-17.826,35.651-35.651c.957-.957.962-1.216.016-2.161L2190.6,104.7q-7.02-7.021-14.045-14.037A9.884,9.884,0,0,0,2175.594,89.925Z" fill="#fff"/>
      <path id="Path_71" data-name="Path 71" d="M2325.518,267.455l-6.189,1.423c0-1.136-.022-2.194.02-3.248.008-.2.241-.437.432-.564,1.438-.96,2.9-1.885,4.332-2.855a.965.965,0,0,0,.4-.694c-.229-4.254-.49-8.506-.747-12.759a3.566,3.566,0,0,0-.068-.374l-18.8,6.451c0-1.327-.017-2.572.02-3.814.005-.173.249-.378.428-.5q8.756-6.1,17.534-12.163a1.359,1.359,0,0,0,.67-1.316c-.054-2.681-.06-5.363-.077-8.045a11.161,11.161,0,0,1,1.729-6.155,1.819,1.819,0,0,1,3.288.021,11.194,11.194,0,0,1,1.717,6.16c-.018,2.7-.03,5.407-.086,8.11a1.209,1.209,0,0,0,.592,1.162q8.778,6.065,17.542,12.152a1.081,1.081,0,0,1,.545,1.052c-.037,1.078-.011,2.158-.011,3.343l-18.839-6.464c-.032.386-.066.716-.085,1.047-.237,3.994-.466,7.988-.717,11.98a.788.788,0,0,0,.408.838c1.463.923,2.9,1.888,4.358,2.815a.844.844,0,0,1,.448.836c-.029.967-.01,1.935-.01,2.988l-6.185-1.421c-.083.394-.148.748-.233,1.1a1.1,1.1,0,0,1-1.1,1c-.641,0-.952-.442-1.095-1.013C2325.652,268.208,2325.6,267.869,2325.518,267.455Z" transform="translate(-151.238 -120.854)" fill="#fff"/>
    </g>
  </g>
</svg>
