<svg xmlns="http://www.w3.org/2000/svg" width="100" height="100" viewBox="0 0 100 100">
  <g id="airport_services" data-name="airport services" transform="translate(-1365 -211)">
    <rect id="Rectangle_49" data-name="Rectangle 49" width="100" height="100" transform="translate(1365 211)" fill="#fff" opacity="0"/>
    <g id="Group_94" data-name="Group 94" transform="translate(-2006.216 -406.271)">
      <path id="Path_115" data-name="Path 115" d="M3520.494,768.277a5.306,5.306,0,0,0-4.233-1.206,4.751,4.751,0,0,0-4.279,4.681c-.061,5.091-.022,10.182-.023,15.273,0,.531.185.977.782.969.707-.009.785-.554.785-1.115,0-4.892-.01-9.785.013-14.677a4.577,4.577,0,0,1,.316-1.731c.612-1.434,2.039-2.081,3.853-1.858a3.267,3.267,0,0,1,2.767,2.733,5.745,5.745,0,0,1,.069.963q.006,9.276,0,18.552a16.378,16.378,0,0,1-4.669,11.726c-1.609,1.69-3.127,3.466-4.687,5.2-.215.239-.432.476-.774.851-1.771-1.555-3.542-3.064-5.257-4.634-.914-.836-1.736-1.774-2.59-2.675-.372-.393-.78-.58-1.223-.164-.412.387-.282.8.064,1.178a48.6,48.6,0,0,0,9.386,8.222c.62.4,1.3.709,2.048,1.115-.677.65-1.314,1.309-2.011,1.9a.914.914,0,0,1-.8.076,13.213,13.213,0,0,1-2.165-1.142,48.435,48.435,0,0,1-12.384-12.441,21.1,21.1,0,0,1-1.133-2.089.752.752,0,0,1,.195-.991c.6-.589,1.147-1.223,1.657-1.774,1,1.517,1.931,2.919,2.862,4.319.3.456.7.783,1.235.4.577-.414.333-.9-.02-1.348-.3-.39-.586-.8-.928-1.263,1.192-1.112,2.339-2.238,3.549-3.289a2.089,2.089,0,0,0,.765-2q-.812-8.713-1.5-17.438a8.659,8.659,0,0,1,.766-4.135q5.629-13.093,11.256-26.187a3.218,3.218,0,0,1,3.768-2.063,3.127,3.127,0,0,1,2.578,3.2q.025,11.288,0,22.575C3520.541,768.037,3520.526,768.086,3520.494,768.277Z" transform="translate(-100.032 -113.212)" fill="#fff"/>
      <path id="Path_116" data-name="Path 116" d="M3702,797.416a52.112,52.112,0,0,1-11.094,11.16c-1.241-1.386-2.428-2.715-3.619-4.041-.7-.776-1.4-1.546-2.1-2.319a15.717,15.717,0,0,1-4.254-10.754c-.038-6.455-.014-12.911-.009-19.366a3.5,3.5,0,0,1,7.005-.028c.012,4.891,0,9.782.005,14.674,0,.247-.066.557.054.727.177.25.5.556.752.547s.529-.353.683-.616c.11-.187.038-.484.038-.732,0-4.767-.025-9.534.012-14.3a4.778,4.778,0,0,0-2.631-4.719,5.117,5.117,0,0,0-5.617.484,2.958,2.958,0,0,1-.261.142c-.016-.275-.042-.506-.042-.738q0-10.912,0-21.824a3.278,3.278,0,0,1,6.375-1.278q5.516,12.975,11.038,25.946a10.98,10.98,0,0,1,.746,5.4c-.483,5.463-.937,10.93-1.443,16.391a1.973,1.973,0,0,0,.726,1.879C3699.6,795.112,3700.764,796.26,3702,797.416Z" transform="translate(-258.883 -113.263)" fill="#fff"/>
      <path id="Path_120" data-name="Path 120" d="M3732.476,1115.249a47.436,47.436,0,0,0,16.492-16.493c.574.575,1.237,1.2,1.84,1.873a.836.836,0,0,1,.056.738,15.14,15.14,0,0,1-1.2,2.3,46.868,46.868,0,0,1-12.441,12.362,13.212,13.212,0,0,1-2.115,1.074.834.834,0,0,1-.726-.081C3733.7,1116.448,3733.073,1115.814,3732.476,1115.249Z" transform="translate(-302.762 -416.679)" fill="#fff"/>
      <path id="Path_121" data-name="Path 121" d="M3463.048,1129.8c.685-.661,1.273-1.23,1.863-1.8.381-.367.589-.792.172-1.23-.453-.477-.895-.254-1.279.154-.509.541-1.017,1.084-1.654,1.764-.637-1.16-1.224-2.156-1.726-3.192a1.015,1.015,0,0,1,.125-.915c1.134-1.214,2.321-2.376,3.555-3.619,1.552,3.359,3.98,5.973,6.346,8.572l-4.063,4.047Z" transform="translate(-71.203 -435.577)" fill="#fff"/>
      <path id="Path_122" data-name="Path 122" d="M3827,1161.854l-3.987-4.111,3.228-3.667c1.286,1.339,2.58,2.685,3.958,4.12Z" transform="translate(-379.809 -463.756)" fill="#fff"/>
      <path id="Path_123" data-name="Path 123" d="M3797.371,1191.141l-3.6,3.219-4.145-3.937,3.721-3.348Z" transform="translate(-351.398 -491.836)" fill="#fff"/>
      <path id="Path_124" data-name="Path 124" d="M3512.521,1194.16l-3.714-3.337,4.062-4.022,3.711,3.349Z" transform="translate(-112.425 -491.604)" fill="#fff"/>
      <path id="Path_125" data-name="Path 125" d="M3755.465,1218.925l3.744-2.278,4.213,3.963c-1.244.686-2.373,1.334-3.532,1.925a.891.891,0,0,1-.807-.049C3757.842,1221.315,3756.645,1220.1,3755.465,1218.925Z" transform="translate(-322.325 -517.002)" fill="#fff"/>
      <path id="Path_126" data-name="Path 126" d="M3542.677,1220.209l3.982-3.98,3.816,2.354-2.571,2.57c-1.389,1.388-1.4,1.4-3.1.4C3544.1,1221.149,3543.426,1220.687,3542.677,1220.209Z" transform="translate(-141.247 -516.646)" fill="#fff"/>
      <path id="Path_127" data-name="Path 127" d="M3856.215,1128.846l-4.006-4.152,2.04-3.449c1.173,1.183,2.372,2.364,3.521,3.591a.961.961,0,0,1,.086.862C3857.373,1126.722,3856.816,1127.712,3856.215,1128.846Z" transform="translate(-404.652 -435.817)" fill="#fff"/>
      <path id="Path_135" data-name="Path 135" d="M3725.694,1184.81l-2.184,1-.23-.168,1.01-2.354Z" transform="translate(-294.936 -488.611)" fill="#fff"/>
      <path id="Path_136" data-name="Path 136" d="M3614.087,1186.075l-2.112-.959,1.331-1.51,1.02,2.266Z" transform="translate(-200.218 -488.885)" fill="#fff"/>
      <path id="Path_137" data-name="Path 137" d="M3818.936,1090.257l2.066-.881.185.166-.846,2.013Z" transform="translate(-376.337 -408.697)" fill="#fff"/>
      <path id="Path_138" data-name="Path 138" d="M3519.225,1090.25l-1.359,1.286-.848-1.938.148-.2Z" transform="translate(-119.412 -408.714)" fill="#fff"/>
    </g>
  </g>
</svg>
