<svg xmlns="http://www.w3.org/2000/svg" width="100" height="100" viewBox="0 0 100 100">
  <g id="security_checkpoint" data-name="security checkpoint" transform="translate(-4667.391 -72.928)">
    <rect id="Rectangle_48" data-name="Rectangle 48" width="100" height="100" transform="translate(4667.391 72.928)" fill="#fff" opacity="0"/>
    <path id="Union_2" data-name="Union 2" d="M2296.417-3651.411c.114-1.415.217-2.8.338-4.192a141.2,141.2,0,0,1,3.328-21.258,10.849,10.849,0,0,1,2.133-4.131,1.065,1.065,0,0,1,.618-.329,31.474,31.474,0,0,1,3.651-.524c4.006-.181,8.018-.268,12.027-.415.973-.036,1.943-.161,2.982-.25-.046.388-.077.755-.133,1.115a20.24,20.24,0,0,0,2.508,12.9,20.052,20.052,0,0,0,3.811,5.273c.131.124.267.243.4.36a1,1,0,0,0,.18.086c.044-.7.091-1.363.128-2.031.157-2.775.322-5.55.457-8.326.021-.421.162-.521.56-.515,1.548.021,3.1.017,4.644,0,.361,0,.482.1.516.472.283,3.172.589,6.343.888,9.514a1.349,1.349,0,0,0,.057.182c.1-.126.194-.215.261-.316a25.046,25.046,0,0,0,4.375-12.986,15.051,15.051,0,0,1,1.165-5.794,9.721,9.721,0,0,1,.929-1.482.661.661,0,0,1,.485-.237,68.627,68.627,0,0,1,16.052,2.375c.6.178,1.181.439,1.774.656a3.557,3.557,0,0,1,2.14,2.015,25.825,25.825,0,0,1,1.5,4.23c.805,3.65,1.493,7.326,2.156,11.005.73,4.05,1.381,8.115,2.064,12.173.022.132.033.266.052.427Zm36.991-23.781c-.509-.009-1.018-.008-1.527-.008-.421,0-.843,0-1.264,0a.791.791,0,0,1-.458-.121c-.884-.719-1.754-1.456-2.679-2.229l4.224-5.486,1.258,1.4c.9,1.006,1.8,2.016,2.713,3.009a.406.406,0,0,1,.043.61q-.866,1.233-1.685,2.5a.632.632,0,0,1-.6.324Zm-5.322-11.746a17.753,17.753,0,0,1-9.167-5.589,17.918,17.918,0,0,1-3.946-9.146,30.417,30.417,0,0,1-.227-6.25,1.3,1.3,0,0,0-.227-.777,2.378,2.378,0,0,1-.506-1.586c.059-1.079.087-2.159.1-3.24,0-.125-.18-.307-.318-.37a10.611,10.611,0,0,1-3.835-2.7,6.747,6.747,0,0,1-.836-1.224,4.283,4.283,0,0,1,.5-5.113,16.182,16.182,0,0,1,5.116-3.924,30.877,30.877,0,0,1,15.12-3.69,37.14,37.14,0,0,1,19.167,5.5,14.974,14.974,0,0,1,2.735,2.256,3.258,3.258,0,0,1,.469,4.291,11.049,11.049,0,0,1-3.777,3.672c-.627.407-1.3.748-1.986,1.14a9.255,9.255,0,0,1,.375,2.891c-.013.847.227,1.7.281,2.548a28.717,28.717,0,0,1-1.306,11.34,15.185,15.185,0,0,1-6.41,8.327,16.059,16.059,0,0,1-7.058,2.273c-.2.018-.4.027-.6.027A14.041,14.041,0,0,1,2328.087-3686.938ZM2316.477-3714h27.212v-3.135h-27.212Zm8.135-9.38c.117.054.239.1.355.165,1.259.662,2.522,1.317,3.776,1.99a4.532,4.532,0,0,0,4.194.2c1.1-.491,2.164-1.04,3.244-1.562.534-.258,1.068-.511,1.6-.766-.008-.036-.015-.071-.023-.107l-2.974.185a3.336,3.336,0,0,0-.9-2.888,3.672,3.672,0,0,0-2.815-1.083c-2.041.061-3.335,1.43-3.486,3.742h-2.945C2324.63-3723.46,2324.621-3723.42,2324.613-3723.38Z" transform="translate(2384.973 3813.487)" fill="#fff" stroke="rgba(0,0,0,0)" stroke-width="1"/>
  </g>
</svg>
