<svg xmlns="http://www.w3.org/2000/svg" width="100" height="100" viewBox="0 0 100 100">
  <g id="talk_to_us" data-name="talk to us" transform="translate(-1348 -743)">
    <g id="Group_62" data-name="Group 62" transform="translate(1652.877 4225.901)">
      <path id="Path_81" data-name="Path 81" d="M-281.793-3390.994a6.766,6.766,0,0,1,6.414-6.889c3.275-.1,6.556-.036,9.834-.044.337,0,.673,0,1.093,0v-7h-1.333c-7.478,0-14.957.011-22.435-.006-4.782-.011-7.656-2.9-7.656-7.656q0-27.351,0-54.7c0-4.665,2.943-7.6,7.613-7.6q16.339,0,32.678-.006h1.69v1.133q0,7.99,0,15.981a10.516,10.516,0,0,0,10.92,10.9q7.529.011,15.059,0h1.955c.02.465.053.858.053,1.251q0,16.646-.008,33.293c-.007,4.487-2.962,7.407-7.475,7.415q-10.962.02-21.922.006h-2v7h1.119c3.175,0,6.352-.043,9.527.016a6.764,6.764,0,0,1,6.667,6.912Zm34.829-24.5a10.07,10.07,0,0,0-8.566-10.179,70.113,70.113,0,0,0-10.409-.073,8.65,8.65,0,0,0-5.468,2.536,10.21,10.21,0,0,0-3.443,7.717Zm-20.9-24.362a6.963,6.963,0,0,0,6.975,6.94,7.008,7.008,0,0,0,6.993-7.047,6.954,6.954,0,0,0-6.993-6.919A6.921,6.921,0,0,0-267.862-3439.857Z" transform="translate(0 0)" fill="#fff"/>
      <path id="Path_82" data-name="Path 82" d="M-28.919-3468l6.672-6.763.238.148v20.388l-6.373-6.709-.536.321q0,1.176,0,2.352c0,3.139-1.272,4.39-4.42,4.387q-9.624-.009-19.247,0c-3.068,0-4.338-1.28-4.339-4.361q0-6.3,0-12.592c0-2.65,1.393-4.055,4.024-4.057q9.93-.01,19.861-.006c2.777,0,4.113,1.36,4.12,4.174C-28.917-3469.89-28.919-3469.054-28.919-3468Z" transform="translate(-189.985 -0.001)" fill="#fff"/>
    </g>
    <rect id="Rectangle_57" data-name="Rectangle 57" width="100" height="100" transform="translate(1348 743)" fill="#fff" opacity="0"/>
  </g>
</svg>
