<svg xmlns="http://www.w3.org/2000/svg" width="23" height="23" viewBox="0 0 23 23"><defs><style>.a{fill:none;stroke:#b5b5b5;stroke-miterlimit:10;}</style></defs><path class="a" d="M21.569,22a.432.432,0,0,1-.311-.129l-6.425-6.434a9.287,9.287,0,0,1-5.775,2.007A8.906,8.906,0,0,1,0,8.722,8.9,8.9,0,0,1,9.059,0a8.906,8.906,0,0,1,9.06,8.722,8.5,8.5,0,0,1-2.649,6.156L21.88,21.3a.407.407,0,0,1-.013.588A.441.441,0,0,1,21.569,22ZM9.059.83a8.057,8.057,0,0,0-8.2,7.892,8.058,8.058,0,0,0,8.2,7.893,8.059,8.059,0,0,0,8.2-7.893A8.058,8.058,0,0,0,9.059.83Z" transform="translate(0.5 0.5)"/></svg>