<svg xmlns="http://www.w3.org/2000/svg" width="39" height="39" viewBox="0 0 39 39">
  <g id="hangcall_ic" transform="translate(-1029 -878)">
    <rect id="Rectangle_3" data-name="Rectangle 3" width="39" height="39" transform="translate(1029 878)" fill="#fff" opacity="0"/>
    <path id="Path_2" data-name="Path 2" d="M923.993,535.235a3.163,3.163,0,0,1-3.085,3.241l-1.836.046a3.164,3.164,0,0,1-3.242-3.085l-.029-1.2h0a3.147,3.147,0,0,1,.412-1.644l.127-.222a.547.547,0,0,0-.288-.786l-.241-.087a16.17,16.17,0,0,0-11.6.2l-.211.086a.554.554,0,0,0-.3.307.548.548,0,0,0,.014.431l.1.206a3.148,3.148,0,0,1,.294,1.256l.03,1.2a3.162,3.162,0,0,1-3.084,3.241l-1.836.045a3.166,3.166,0,0,1-3.241-3.084l-.03-1.2a3.228,3.228,0,0,1,.135-1,4.674,4.674,0,0,1,1.665-2.393,20.27,20.27,0,0,1,24.284-.6,4.007,4.007,0,0,1,1.9,3.24.611.611,0,0,0,0,.069v.055a.646.646,0,0,0,.007.071,2.978,2.978,0,0,1,.036.407Z" transform="translate(138.537 365.016)" fill="#fff"/>
  </g>
</svg>
