<svg xmlns="http://www.w3.org/2000/svg" width="39" height="39" viewBox="0 0 39 39">
  <g id="startvideo_ic" transform="translate(-1029 -878)">
    <rect id="Rectangle_3" data-name="Rectangle 3" width="39" height="39" transform="translate(1029 878)" fill="#fff" opacity="0"/>
    <path id="Path_11" data-name="Path 11" d="M760.669,530.668l-5.379,2.9v-2.6a1.54,1.54,0,0,0-1.54-1.542H740.54A1.541,1.541,0,0,0,739,530.973v10.9a1.54,1.54,0,0,0,1.541,1.541H753.75a1.539,1.539,0,0,0,1.54-1.541v-2.6l5.379,2.9a.416.416,0,0,0,.614-.366V531.035A.417.417,0,0,0,760.669,530.668Z" transform="translate(298.049 360.768)" fill="#fff"/>
  </g>
</svg>
