<svg xmlns="http://www.w3.org/2000/svg" width="39" height="39" viewBox="0 0 39 39">
  <g id="stopvideo_ic" transform="translate(-1029 -878)">
    <rect id="Rectangle_3" data-name="Rectangle 3" width="39" height="39" transform="translate(1029 878)" fill="#fff" opacity="0"/>
    <path id="No_Video-595b40b75ba036ed117d8219" data-name="No Video-595b40b75ba036ed117d8219" d="M3.775,2,2,3.775,5.273,7.048H4.524A2.523,2.523,0,0,0,2,9.571v10.1A2.523,2.523,0,0,0,4.524,22.19H18.4a2.51,2.51,0,0,0,1.5-.513l5.56,5.56,1.774-1.774ZM12.1,7.048l8.833,8.833V9.571A2.523,2.523,0,0,0,18.4,7.048ZM27.238,8.309,22.19,12.1v5.048l5.048,5.048Z" transform="translate(1033.881 882.881)" fill="#fff"/>
  </g>
</svg>
