<svg xmlns="http://www.w3.org/2000/svg" width="100" height="100" viewBox="0 0 100 100">
  <g id="airline_info_ci" transform="translate(-281 -380)">
    <rect id="Rectangle_45" data-name="Rectangle 45" width="100" height="100" transform="translate(281 380)" fill="#fff" opacity="0"/>
    <g id="Group_63" data-name="Group 63" transform="translate(-265 4094)">
      <path id="Path_83" data-name="Path 83" d="M633.745-3704c1.876.723,2.384,1.6,2.065,3.6a16.91,16.91,0,0,1-2.471,5.936,96.052,96.052,0,0,1-10.99,14.443,2.353,2.353,0,0,0-.659,1.73c.037,2.834.015,5.669.015,8.708.565-.55,1.014-.982,1.457-1.421a2.745,2.745,0,0,1,4.3,0c.481.475.969.946,1.43,1.439a2.661,2.661,0,0,1,.02,3.791c-.857.907-1.784,1.75-2.629,2.667-.363.394-.694.231-1.052.125a22.9,22.9,0,0,0-12.166-.413,23.654,23.654,0,0,0-8.58,4.089l-1.281-1.195c-.213.167-.416.32-.611.481q-9.451,7.793-18.909,15.578a1.252,1.252,0,0,0-.457,1.146c.089,4.317.15,8.635.252,12.952a1.66,1.66,0,0,1-.566,1.354c-1.4,1.354-2.762,2.745-4.185,4.168l-7.244-13.226-3.377,2.013-.149-.13,2.021-3.392-13.314-7.294c.654-.606,1.264-1.149,1.849-1.719.857-.835,1.672-1.714,2.557-2.519a1.727,1.727,0,0,1,1.07-.434c4.37.049,8.739.149,13.109.2a1.506,1.506,0,0,0,1.059-.409q7.956-9.57,15.859-19.184c.081-.1.152-.206.29-.394-1.8-1.516-3.1-3.479-5.372-4.516-10.391-4.749-20.731-9.613-31.089-14.435v-.156a5.276,5.276,0,0,0,.6-.448c1.349-1.336,2.711-2.66,4.018-4.036a1.553,1.553,0,0,1,1.509-.505c4.681.667,9.365,1.31,14.048,1.958q7.566,1.047,15.131,2.1a1.218,1.218,0,0,0,1.167-.4c1.617-1.656,3.263-3.283,4.9-4.917,1.493-1.489,2.951-1.48,4.463.023q.553.55,1.1,1.1a2.744,2.744,0,0,1,0,4.3c-.44.445-.875.894-1.426,1.458,3.242,0,6.283.012,9.323-.019a1.582,1.582,0,0,0,.862-.421c2.567-2.117,5.051-4.34,7.693-6.358,4.02-3.07,8.055-6.163,13.11-7.427Z" fill="#fff"/>
      <path id="Path_84" data-name="Path 84" d="M861.419-3381.064a17.546,17.546,0,0,1-17.452-17.518,17.541,17.541,0,0,1,17.516-17.45,17.54,17.54,0,0,1,17.452,17.516A17.542,17.542,0,0,1,861.419-3381.064Zm2.479-5.03v-17.391h-7.234l-.107.166c.642.6,1.324,1.163,1.91,1.812a1.88,1.88,0,0,1,.467,1.137c.032,4.469.021,8.939.021,13.409v.867Zm-4.942-22.451a2.363,2.363,0,0,0,2.4,2.5,2.516,2.516,0,0,0,2.587-2.452,2.509,2.509,0,0,0-2.578-2.538A2.356,2.356,0,0,0,858.957-3408.545Z" transform="translate(-243.006 -243.006)" fill="#fff"/>
    </g>
  </g>
</svg>
