<svg xmlns="http://www.w3.org/2000/svg" width="100" height="100" viewBox="0 0 100 100">
  <g id="airline_call_centre" data-name="airline call centre" transform="translate(-574 -506)">
    <rect id="Rectangle_53" data-name="Rectangle 53" width="100" height="100" transform="translate(574 506)" fill="#fff" opacity="0"/>
    <g id="Group_64" data-name="Group 64" transform="translate(-891.971 4190.744)">
      <path id="Path_85" data-name="Path 85" d="M1523.137-3678.744c1.728.29,3.476.492,5.18.884a32.541,32.541,0,0,1,18.016,11.065,32.312,32.312,0,0,1,7.433,17.027c.173,1.361.242,2.736.365,4.171h-3.107c-.347-10.294-4.531-18.607-12.936-24.6a28.9,28.9,0,0,0-20.211-5.284,30.093,30.093,0,0,0-26.942,27.095,30.1,30.1,0,0,0,24.68,32.414c.114-.195.244-.408.367-.627a5.53,5.53,0,0,1,6.661-2.614,5.565,5.565,0,0,1,3.781,6.078,5.6,5.6,0,0,1-5.046,4.8,5.541,5.541,0,0,1-5.822-3.924.962.962,0,0,0-.882-.76,32.578,32.578,0,0,1-13.9-6.233,31.987,31.987,0,0,1-12.207-19.02c-2.384-11.123.241-21.049,7.814-29.546a32.02,32.02,0,0,1,20.136-10.6c.709-.1,1.416-.219,2.123-.329Z" transform="translate(-4.761 0)" fill="#fff"/>
      <path id="Path_86" data-name="Path 86" d="M1533.63-3619.807c1.257.375,2.522.724,3.768,1.131a42.8,42.8,0,0,1,14.307,7.5c3.185,2.642,5.777,5.745,6.932,9.8a17.571,17.571,0,0,1,.59,4.257c.047,1.64-1.1,2.661-2.343,3.513a25.827,25.827,0,0,1-8.619,3.445,101.757,101.757,0,0,1-21.143,2.763c-6.281.206-12.575.33-18.855.166a112.433,112.433,0,0,1-24.253-2.923,27.265,27.265,0,0,1-8.41-3.287c-2.277-1.471-2.919-2.967-2.525-5.635a18.448,18.448,0,0,1,5.96-10.757,37.764,37.764,0,0,1,10.775-6.952c.555-.251.789.055,1.089.346a35.114,35.114,0,0,0,11.921,7.658c1.529.587,3.132.975,4.679,1.516a2.167,2.167,0,0,1,1.1.8,8.7,8.7,0,0,0,12.259,2.916,8.708,8.708,0,0,0,2.479-12.11,8.688,8.688,0,0,0-13.389-1.262,1.19,1.19,0,0,1-1.414.357c-7.916-2.426-13.806-7.382-16.928-14.964-5.778-14.031.082-28.729,12.9-34.963a26.559,26.559,0,0,1,32.246,7.073,26.269,26.269,0,0,1,5.6,21.984,34,34,0,0,1-8.166,16.807c-.171.2-.338.394-.5.6A.759.759,0,0,0,1533.63-3619.807Z" transform="translate(0 -3.089)" fill="#fff"/>
    </g>
  </g>
</svg>
