<svg xmlns="http://www.w3.org/2000/svg" width="100" height="100" viewBox="0 0 100 100">
  <g id="airport_stores" data-name="airport stores" transform="translate(-1228 -448)">
    <rect id="Rectangle_51" data-name="Rectangle 51" width="100" height="100" transform="translate(1228 448)" fill="#fff" opacity="0"/>
    <g id="Group_66" data-name="Group 66" transform="translate(-2078.248 4729.678)">
      <path id="Path_96" data-name="Path 96" d="M3373.178-4254.729h4.053c-.34-1.508-.578-2.943-.995-4.324-.662-2.2-1.384-4.379-2.187-6.528a25.321,25.321,0,0,0-7.491-10.822c-.115-.1-.275-.136-.26-.334,10.059,3.865,14.445,11.887,16.036,22.068.426,0,.872-.006,1.318,0a4.888,4.888,0,0,1,4.858,4.611q.987,14.789,1.967,29.579.974,14.644,1.944,29.289c.2,3.034-1.511,4.87-4.57,4.871q-31.506.021-63.01,0c-3,0-4.759-1.793-4.581-4.77.391-6.565.858-13.126,1.294-19.688q.519-7.808,1.036-15.615.648-9.7,1.3-19.4c.086-1.293.189-2.585.251-3.879a4.864,4.864,0,0,1,5.17-4.987c.9.012,1.166-.235,1.3-1.155.921-6.521,3.513-12.258,8.455-16.726,8.349-7.547,19.818-6.706,27.336,1.943a27.934,27.934,0,0,1,6.55,14.8c.032.224.064.449.108.671A4.007,4.007,0,0,0,3373.178-4254.729Zm-15.972,58.821a23.894,23.894,0,0,0,23.924-24.011,23.972,23.972,0,0,0-23.941-23.836,23.971,23.971,0,0,0-23.923,23.95A23.9,23.9,0,0,0,3357.206-4195.909Zm10.82-58.819c-.812-5.7-2.9-10.64-7.26-14.411a13.232,13.232,0,0,0-17.233-.6c-4.121,3.1-6.367,7.412-7.542,12.34-.205.86-.309,1.746-.469,2.669h3.974c.61-2.173,1.121-4.281,1.8-6.332.7-2.128,1.605-4.12,3.693-5.389a14.834,14.834,0,0,1,7.875-2.388,19.7,19.7,0,0,0-5.412,6.284,23.339,23.339,0,0,0-2.647,7.828Z" fill="#fff"/>
      <path id="Path_97" data-name="Path 97" d="M3385.964-4111.42a19.855,19.855,0,0,1,20.018-19.857,19.858,19.858,0,0,1,19.8,19.983,19.926,19.926,0,0,1-19.97,19.845A19.932,19.932,0,0,1,3385.964-4111.42Zm19.425,1.408c2.18,2.725,4.285,5.351,6.38,7.987.4.505.808,1.014,1.525.683s.6-.962.453-1.6c-.894-3.977-1.754-7.961-2.672-11.934a1.24,1.24,0,0,1,.381-1.362c1.289-1.23,2.549-2.492,3.8-3.759a1.786,1.786,0,0,0,.461-2.284,1.747,1.747,0,0,0-2.891-.21c-1.237,1.237-2.455,2.5-3.614,3.806a1.543,1.543,0,0,1-1.692.53c-3.959-.826-7.927-1.606-11.892-2.4-.6-.121-1.306-.15-1.433.567a1.862,1.862,0,0,0,.584,1.339,19.321,19.321,0,0,0,1.975,1.57l6.247,4.856c-1.7,2-3.375,3.885-4.951,5.852-.746.93-1.463,1.576-2.751,1.165a6.524,6.524,0,0,0-1.637-.189,4.427,4.427,0,0,0-.841.112l-.134.329a14.358,14.358,0,0,1,5.768,5.378,2.639,2.639,0,0,0,.183-1.282c-.08-.74-.253-1.473-.288-2.213a1.429,1.429,0,0,1,.331-1.017C3400.867-4106.06,3403.091-4107.992,3405.389-4110.012Z" transform="translate(-48.673 -108.433)" fill="#fff"/>
    </g>
  </g>
</svg>
