<svg xmlns="http://www.w3.org/2000/svg" width="100" height="100" viewBox="0 0 100 100">
  <g id="children" transform="translate(-1365 -211)">
    <rect id="Rectangle_49" data-name="Rectangle 49" width="100" height="100" transform="translate(1365 211)" fill="#fff" opacity="0"/>
    <g id="Group_60" data-name="Group 60" transform="translate(-2987.477 627.042)">
      <path id="Path_74" data-name="Path 74" d="M4415.969-368.523q-2.106,2.493-4.21,4.987c-.568.672-1.127,1.351-1.688,2.028-1.641,1.987-3.68,2.386-5.44,1.063a4.49,4.49,0,0,1-.941-5.928,6.078,6.078,0,0,1,.439-.57c2.75-3.279,5.473-6.579,8.259-9.826a11.652,11.652,0,0,1,8.477-4.416,75.081,75.081,0,0,1,10.627.279,10.411,10.411,0,0,1,6.7,3.9q4.347,5.04,8.57,10.189a4.285,4.285,0,0,1-2.264,7.07,3.476,3.476,0,0,1-3.4-1.342c-1.889-2.225-3.759-4.467-5.642-6.7-.215-.256-.459-.488-.689-.731l-.33.17a14.836,14.836,0,0,0,.759,2.018c2.479,4.513,4.893,9.067,7.532,13.485a3.494,3.494,0,0,1-3.313,5.5,19.172,19.172,0,0,0-2.877-.02c-1.423.014-1.955.528-1.959,1.947-.012,3.919.012,7.839-.012,11.759a3.94,3.94,0,0,1-3.457,3.964,3.959,3.959,0,0,1-4.3-2.687,6.389,6.389,0,0,1-.211-1.888c-.018-3.68-.008-7.359-.01-11.04,0-.319.11-.732-.046-.939-.323-.428-.8-1.041-1.2-1.026a1.582,1.582,0,0,0-1.054,1.129c-.132,1.509-.054,3.036-.054,4.556,0,2.559.007,5.119,0,7.679a4.074,4.074,0,0,1-3.943,4.267,4.009,4.009,0,0,1-4.072-4.131c-.064-3.759-.019-7.52-.026-11.279,0-1.98-.335-2.308-2.3-2.312-.96,0-1.921.005-2.88,0a3.325,3.325,0,0,1-3.061-5.156c2.512-4.585,5.092-9.134,7.611-13.717a14.83,14.83,0,0,0,.78-2.1Z" fill="#fff"/>
      <path id="Path_75" data-name="Path 75" d="M4388.237-350.124c0,5.478.011,10.956-.006,16.434a3.989,3.989,0,0,1-3.437,3.993,3.926,3.926,0,0,1-4.278-2.536,6.543,6.543,0,0,1-.285-2.114c-.022-5.518-.012-11.036-.015-16.554a2.743,2.743,0,0,0-.072-1.18c-.212-.406-.681-1-.974-.964a2.1,2.1,0,0,0-1.166.937c-.172.245-.059.7-.059,1.057,0,5.838.013,11.675-.017,17.513a3.9,3.9,0,0,1-3.441,3.847,3.928,3.928,0,0,1-4.216-2.461,6.673,6.673,0,0,1-.3-2.228q-.027-15.714-.012-31.429a3.938,3.938,0,0,0-.018-.955,5.65,5.65,0,0,0-.448-.993,3.014,3.014,0,0,0-.872.5q-2.424,2.817-4.788,5.686a4.138,4.138,0,0,1-3.278,1.71,3.791,3.791,0,0,1-3.653-2.273,3.946,3.946,0,0,1,.635-4.471c2.592-3.094,5.254-6.133,7.772-9.288a13.783,13.783,0,0,1,11.911-5.473,77.291,77.291,0,0,1,7.876.429,11.124,11.124,0,0,1,6.883,4.047q4.371,5.1,8.639,10.282a4,4,0,0,1-.323,5.781,4,4,0,0,1-5.843-.642c-1.591-1.846-3.12-3.747-4.718-5.589a4.272,4.272,0,0,0-1.134-.678,4.423,4.423,0,0,0-.346,1.179C4388.231-361.08,4388.238-355.6,4388.237-350.124Z" fill="#fff"/>
      <path id="Path_76" data-name="Path 76" d="M4439.963-389.9c-3.912-3.753-3.912-3.753-5.3-3.789-.85,6.624-4.02,10.071-9.265,10.075s-8.492-3.527-9.284-10.188c-2.354.436-3.677,2.214-5.238,3.983a9.8,9.8,0,0,1-3.258-6.208c-.106-1.177.956-1.794,1.947-2.179a9.533,9.533,0,0,1,6.675.082c.41.137.809.31,1.2.461,4.207-5.94,12.017-5.661,15.907.013a10.623,10.623,0,0,1,7.089-.821c2.637.688,3.3,2.01,2.265,4.507A9.812,9.812,0,0,1,4439.963-389.9Z" fill="#fff"/>
      <path id="Path_77" data-name="Path 77" d="M4388.23-392.828a9.234,9.234,0,0,1-9.22,9.208,9.28,9.28,0,0,1-9.18-9.268,9.288,9.288,0,0,1,9.182-9.154A9.247,9.247,0,0,1,4388.23-392.828Z" fill="#fff"/>
    </g>
  </g>
</svg>
