<svg xmlns="http://www.w3.org/2000/svg" width="100" height="100" viewBox="0 0 100 100">
  <g id="rentals_parking" data-name="rentals parking" transform="translate(-914 -450)">
    <g id="Group_59" data-name="Group 59" transform="translate(-2667.994 796.903)">
      <path id="Path_72" data-name="Path 72" d="M3632.131-257.625c-6.918,0-13.837.02-20.755-.01a25.953,25.953,0,0,1-7.479-.629,14.958,14.958,0,0,1-10.689-12.685c-.3-3.66-.195-7.357-.2-11.037q-.029-19.14-.006-38.281a14.986,14.986,0,0,1,1.97-7.816c2.99-5.028,7.445-7.745,13.29-7.773q23.992-.111,47.985-.008a15.115,15.115,0,0,1,14.865,13.438c.313,3.176.107,6.4.109,9.608.007,13.058-.024,26.117.018,39.174a15.5,15.5,0,0,1-3.343,10.263,14.809,14.809,0,0,1-11.865,5.724c-7.966.045-15.933.012-23.9.012Zm.066-71.289q-11.589,0-23.178,0a9.216,9.216,0,0,0-9.018,8.909c-.1,3.92-.051,7.845-.052,11.767q-.009,15.046.006,30.092a37.023,37.023,0,0,0,.281,6.257,9.116,9.116,0,0,0,8.975,7.325q22.864,0,45.728,0a8.824,8.824,0,0,0,1.521-.089,9.506,9.506,0,0,0,7.892-9.6q0-18.506-.008-37.012c-.005-3.259.107-6.54-.221-9.772a9.07,9.07,0,0,0-8.837-7.885C3647.59-328.888,3639.894-328.914,3632.2-328.914Z" fill="#fff"/>
      <path id="Path_73" data-name="Path 73" d="M3716.063-209.107c0,1.584-.024,3.106.005,4.627.059,3-1.477,4.546-4.5,4.471a11.962,11.962,0,0,1-1.7-.1,3.693,3.693,0,0,1-3.023-3.617c-.015-1.765,0-3.53,0-5.365h-23c0,1.5-.045,3.012.012,4.524.067,1.788-.391,3.36-2.108,4.1a5.682,5.682,0,0,1-5.579-.32,3.4,3.4,0,0,1-1.491-3.005c0-1.76,0-3.519,0-5.273a15,15,0,0,1-2-.267,3.567,3.567,0,0,1-2.665-3.51q-.014-5.659,0-11.318a3.356,3.356,0,0,1,2.882-3.358,1.2,1.2,0,0,0,.706-.7c1.827-4.9,3.612-9.812,5.43-14.714a4.721,4.721,0,0,1,4.5-3.081q11.633,0,23.266,0a4.85,4.85,0,0,1,4.921,3.4q2.613,7.107,5.2,14.223a1.169,1.169,0,0,0,1.084.946,3.157,3.157,0,0,1,2.556,2.87c.091,1.371.056,2.752.062,4.129.009,2.156-.064,4.314.025,6.467C3720.745-211.269,3719.671-209.107,3716.063-209.107Zm-20.708-18.4v-.006q6.6,0,13.207,0c1.092,0,1.347-.346.989-1.382q-1.506-4.362-3.034-8.717a1.729,1.729,0,0,0-1.926-1.386q-9.3,0-18.6,0a1.822,1.822,0,0,0-1.952,1.378q-1.48,4.277-2.949,8.557c-.412,1.2-.183,1.548,1.058,1.551Q3688.753-227.5,3695.355-227.506Zm-17.022,5.774a3.517,3.517,0,0,0-3.309,3.392,3.491,3.491,0,0,0,3.4,3.388,3.409,3.409,0,0,0,3.372-3.384A3.45,3.45,0,0,0,3678.333-221.733Zm37.157,3.392a3.33,3.33,0,0,0-3.348-3.369,3.342,3.342,0,0,0-3.324,3.39,3.366,3.366,0,0,0,3.351,3.385A3.347,3.347,0,0,0,3715.49-218.341Z" transform="translate(-63.158 -73.741)" fill="#fff"/>
    </g>
    <rect id="Rectangle_52" data-name="Rectangle 52" width="100" height="100" transform="translate(914 450)" fill="#fff" opacity="0"/>
  </g>
</svg>
