<svg xmlns="http://www.w3.org/2000/svg" width="100" height="100" viewBox="0 0 100 100">
  <g id="route_map" data-name="route map" transform="translate(-759 -719)">
    <rect id="Rectangle_55" data-name="Rectangle 55" width="100" height="100" transform="translate(759 719)" fill="#fff" opacity="0"/>
    <g id="Group_65" data-name="Group 65" transform="translate(-1021.38 4562.625)">
      <path id="Path_87" data-name="Path 87" d="M1789.4-3779.422c2.409,1.276,4.686,2.479,6.961,3.687,4.6,2.442,9.2,4.873,13.778,7.347a1.517,1.517,0,0,0,1.626.026q8.528-4.462,17.091-8.857a1.454,1.454,0,0,1,1.131-.074q4.577,2.265,9.1,4.639a1.825,1.825,0,0,1,.821.946,26.354,26.354,0,0,0,4.683,8.24.513.513,0,0,1,.139.4l-6.857-3.461-6.922-3.5v15.473h-2.881v-15.5c-1.753.91-3.34,1.736-4.928,2.558-3.344,1.73-6.683,3.47-10.04,5.175a1.155,1.155,0,0,0-.722,1.213c.026,4.638.014,9.276.014,13.986h-3.052v-1.208q0-6.417,0-12.834c0-.51-.026-.912-.584-1.205-4.348-2.286-8.677-4.608-13.013-6.917a3.062,3.062,0,0,0-.335-.124v1.008q0,21.324-.019,42.648a1.48,1.48,0,0,0,.884,1.511c4.107,2.318,8.182,4.692,12.27,7.045.191.11.4.186.749.345V-3734.5h3.063v17.376c2.144-1.411,4.136-2.715,6.123-4.029,2.869-1.9,5.717-3.828,8.613-5.685a1.855,1.855,0,0,0,.948-1.822c-.044-4.538-.021-9.076-.021-13.686h2.931v3.141c0,3.653-.013,7.305.021,10.958a1.414,1.414,0,0,0,.468,1.035c4.988,3.275,10,6.511,15.01,9.754.128.083.27.145.518.277v-17.31H1850v17.718c1.018-.537,1.847-.964,2.668-1.409,3.8-2.059,7.592-4.136,11.407-6.168a1.167,1.167,0,0,0,.688-1.226c-.018-8.227.085-16.455-.066-24.679a13.214,13.214,0,0,1,2.257-7.468c1.092-1.741,2.376-3.363,3.747-5.279.035.531.062.759.062.986q0,19.942.022,39.884a1.3,1.3,0,0,1-.825,1.332q-10.39,5.675-20.737,11.427a1.354,1.354,0,0,1-1.651-.087c-5.784-3.789-11.589-7.546-17.371-11.338a1.036,1.036,0,0,0-1.358-.018c-5.7,3.808-11.415,7.581-17.111,11.388a1.238,1.238,0,0,1-1.554.056q-9.964-5.75-19.981-11.409a1.3,1.3,0,0,1-.812-1.281C1789.4-3741.114,1789.4-3760.167,1789.4-3779.422Z" transform="translate(0 -44.303)" fill="#fff"/>
      <path id="Path_88" data-name="Path 88" d="M2083.848-3794.252c-.652-2.146-1.211-4.33-1.978-6.437-1.373-3.776-3.761-6.945-6.27-10.028-1.971-2.424-3.757-4.935-4.461-8.083a13.078,13.078,0,0,1,10.554-15.664,12.993,12.993,0,0,1,14.8,10.567,14.558,14.558,0,0,1-3.41,11.716c-2.36,2.974-4.811,5.887-6.493,9.344A33.537,33.537,0,0,0,2083.848-3794.252Zm4.481-27.719a4.6,4.6,0,0,0-4.5-4.633,4.66,4.66,0,0,0-4.675,4.583,4.671,4.671,0,0,0,4.584,4.583A4.552,4.552,0,0,0,2088.33-3821.971Z" transform="translate(-225.878)" fill="#fff"/>
      <path id="Path_89" data-name="Path 89" d="M2122.849-3608.054a3.311,3.311,0,0,1-3.376-3.344,3.416,3.416,0,0,1,3.425-3.442,3.548,3.548,0,0,1,3.374,3.444A3.384,3.384,0,0,1,2122.849-3608.054Z" transform="translate(-264.916 -176.387)" fill="#fff"/>
      <path id="Path_90" data-name="Path 90" d="M1840.863-3608.045a3.314,3.314,0,0,1-3.391-3.336,3.4,3.4,0,0,1,3.414-3.447,3.535,3.535,0,0,1,3.385,3.429A3.391,3.391,0,0,1,1840.863-3608.045Z" transform="translate(-38.596 -176.398)" fill="#fff"/>
      <path id="Path_91" data-name="Path 91" d="M1930.354-3615.142l-2.152-3.578,5.737-3.445,2.15,3.559Z" transform="translate(-111.412 -170.511)" fill="#fff"/>
      <path id="Path_92" data-name="Path 92" d="M1982.037-3630.78h-5.2a1.356,1.356,0,0,1-.112-.229c-.4-1.129-.8-2.261-1.234-3.478a11.037,11.037,0,0,1,8.014.166Z" transform="translate(-149.365 -160.08)" fill="#fff"/>
      <path id="Path_93" data-name="Path 93" d="M2030.914-3618.067l-2.036,3.608-5.828-3.306,2.063-3.6Z" transform="translate(-187.532 -171.149)" fill="#fff"/>
      <path id="Path_94" data-name="Path 94" d="M2069.752-3591.007l1.506-3.483h5.206l1.312,3.74A10.843,10.843,0,0,1,2069.752-3591.007Z" transform="translate(-225.012 -192.72)" fill="#fff"/>
      <path id="Path_95" data-name="Path 95" d="M1882.2-3594.94h5.2l1.465,3.524a11.047,11.047,0,0,1-8.025.209Z" transform="translate(-73.403 -192.36)" fill="#fff"/>
    </g>
  </g>
</svg>
