<svg xmlns="http://www.w3.org/2000/svg" width="109" height="109" viewBox="0 0 109 109">
  <g id="Shop_and_Dine_" data-name="Shop and Dine " transform="translate(-1223 -446)">
    <rect id="Rectangle_51" data-name="Rectangle 51" width="109" height="109" transform="translate(1223 446)" fill="#fff" opacity="0"/>
    <g id="Group_95" data-name="Group 95" transform="translate(1226.268 471.769)">
      <path id="Path_139" data-name="Path 139" d="M20.967,0q0,7.005,0,14.011c0,4.928-2.243,8.236-6.841,10.09-.134.055-.268.114-.151.064,0,4.24-.058,8.337.015,12.431.1,5.694.312,11.386.459,17.079.069,2.678-1.667,4.655-4.053,4.669-2.438.014-4.179-1.978-4.106-4.73q.37-14.062.772-28.123a1.669,1.669,0,0,0-1.1-1.874A9.527,9.527,0,0,1,.169,14.692C.1,9.795.056,4.9,0,0H4.557a6.36,6.36,0,0,0-.095.782q-.01,6.253,0,12.505c0,1.387.649,2.172,1.75,2.206,1.142.035,1.868-.78,1.885-2.205.024-2.2,0-4.4.012-6.594.018-2.232.064-4.463.1-6.695h4.331c.042.409.12.819.121,1.228q.015,5.743.007,11.485c0,.265-.009.531,0,.8a1.825,1.825,0,0,0,1.746,1.984,1.8,1.8,0,0,0,1.876-1.974c.041-2.918.006-5.837.025-8.756.01-1.588.063-3.176.1-4.763Z" transform="translate(0 0)" fill="#fff"/>
      <path id="Path_140" data-name="Path 140" d="M10.969,0V58.277A7.134,7.134,0,0,1,3.7,50.793c.189-4.55.509-9.095.772-13.642.036-.64.073-1.28.11-1.893C1.166,33.857.032,32.166.031,28.543c0-4.252-.088-8.507.031-12.755A17.9,17.9,0,0,1,5.1,3.217,15.412,15.412,0,0,1,10.514,0Z" transform="translate(92.494 0)" fill="#fff"/>
    </g>
    <g id="Group_96" data-name="Group 96" transform="translate(1251.333 471.769)">
      <path id="Path_141" data-name="Path 141" d="M5161.6,467.571h-54.616a2.591,2.591,0,0,1-1.458-3.042q.71-3.63,1.43-7.259,1.173-5.934,2.347-11.867,1.17-5.911,2.346-11.821.471-2.373.945-4.746a1.722,1.722,0,0,1,.959-1.352,3.755,3.755,0,0,1,1.427-.3q19.312-.023,38.623-.013a2.1,2.1,0,0,1,2.462,2.026q.747,3.741,1.48,7.485,1.432,7.257,2.869,14.514,1.319,6.664,2.64,13.328A2.578,2.578,0,0,1,5161.6,467.571Zm-13.863-34.788a3.358,3.358,0,0,0-3.345-3.356,3.359,3.359,0,1,0,.015,6.719A3.347,3.347,0,0,0,5147.734,432.783Zm-23.6,3.361a3.358,3.358,0,1,0,.1-6.715,3.358,3.358,0,0,0-.1,6.715Z" transform="translate(-5105.453 -409.227)" fill="#fff"/>
      <path id="Path_142" data-name="Path 142" d="M5259.679,282.75a31.62,31.62,0,0,1,3.176.676,8.9,8.9,0,0,1,5.9,5.808,18.767,18.767,0,0,1,.878,7.254,2.183,2.183,0,0,1-2.231,1.95,2.146,2.146,0,0,1-2.108-1.752c-.135-1.105-.143-2.226-.222-3.339a8.921,8.921,0,0,0-.848-3.315,4.609,4.609,0,0,0-3.422-2.536,10.623,10.623,0,0,0-5.384.193,4.661,4.661,0,0,0-3.1,3.209,14.176,14.176,0,0,0-.564,3.9c-.021.465.012.934-.023,1.4a2.219,2.219,0,0,1-1.454,2.074,2.107,2.107,0,0,1-2.355-.494,2.193,2.193,0,0,1-.674-1.677,24.257,24.257,0,0,1,.542-5.735,9.439,9.439,0,0,1,7.993-7.389c.488-.077.978-.151,1.467-.226Z" transform="translate(-5229.633 -282.75)" fill="#fff"/>
    </g>
  </g>
</svg>
